<svg width="18" height="18" viewBox="0 0 18 18" fill="none" xmlns="http://www.w3.org/2000/svg">
<g clip-path="url(#clip0_986_578)">
<path d="M15.248 7.32203C15.248 9.84941 13.1991 11.8983 10.6717 11.8983C8.1442 11.8983 6.09546 9.84941 6.09546 7.32203C6.09546 4.79465 8.1442 2.74576 10.6717 2.74576C13.1991 2.74576 15.248 4.79465 15.248 7.32203Z" fill="#FDD020"/>
<path d="M10.6718 1.83051C10.5032 1.83051 10.3667 1.69391 10.3667 1.52542V0.305085C10.3667 0.136603 10.5032 0 10.6718 0C10.8403 0 10.9769 0.136603 10.9769 0.305085V1.52542C10.9769 1.69391 10.8403 1.83051 10.6718 1.83051Z" fill="#FDD020"/>
<path d="M17.6888 7.62711H16.4684C16.2998 7.62711 16.1633 7.4905 16.1633 7.32202C16.1633 7.15354 16.2998 7.01694 16.4684 7.01694H17.6888C17.8572 7.01694 17.9938 7.15354 17.9938 7.32202C17.9938 7.4905 17.8572 7.62711 17.6888 7.62711Z" fill="#FDD020"/>
<path d="M14.3328 11.2881C14.1096 11.2881 13.8869 11.3105 13.6682 11.3546C13.5033 10.5315 12.9702 9.82946 12.2216 9.44944C11.4732 9.06943 10.5918 9.05349 9.82995 9.40609C9.14053 7.50706 7.04218 6.52656 5.14314 7.21598C3.24411 7.90555 2.26361 10.0039 2.95303 11.9029C1.28951 11.9555 -0.02453 13.3323 0.000347471 14.9965C0.025374 16.6606 1.38023 17.9973 3.04464 18H14.3328C16.1861 18 17.6887 16.4975 17.6887 14.6441C17.6887 12.7906 16.1861 11.2881 14.3328 11.2881Z" fill="#A3D4F7"/>
<path d="M6.40052 3.05084L5.18018 1.83051L6.40052 3.05084Z" fill="#FDD020"/>
<path d="M6.40058 3.35594C6.31954 3.35594 6.24208 3.32376 6.18487 3.26656L4.96454 2.04622C4.88514 1.96965 4.85341 1.85614 4.88126 1.74948C4.90927 1.64282 4.99254 1.55954 5.0992 1.53169C5.20586 1.50368 5.31923 1.53556 5.39594 1.61481L6.61628 2.83515C6.70343 2.92244 6.7295 3.05368 6.68228 3.16764C6.63505 3.2816 6.52392 3.35594 6.40058 3.35594Z" fill="#FDD020"/>
<path d="M14.9429 3.05084L16.1632 1.83051L14.9429 3.05084Z" fill="#FDD020"/>
<path d="M14.943 3.35594C14.8195 3.35594 14.7084 3.2816 14.6612 3.16764C14.614 3.05368 14.64 2.92244 14.7273 2.83515L15.9477 1.61481C16.0242 1.53556 16.1376 1.50368 16.2443 1.53169C16.3509 1.55954 16.4343 1.64282 16.4622 1.74948C16.4901 1.85614 16.4583 1.96965 16.3791 2.04622L15.1587 3.26656C15.1015 3.32376 15.0239 3.35594 14.943 3.35594Z" fill="#FDD020"/>
</g>
<defs>
<clipPath id="clip0_986_578">
<rect width="18" height="18" fill="white"/>
</clipPath>
</defs>
</svg>
