<svg width="24" height="24" viewBox="0 0 24 24" fill="none" xmlns="http://www.w3.org/2000/svg">
<g clip-path="url(#clip0_1075_26692)">
<path d="M19.0325 17.198H19.4464C21.1818 17.1982 22.7664 16.2119 23.5324 14.6546C24.2984 13.0975 24.1127 11.2403 23.0536 9.86566C21.9943 8.49087 20.2458 7.83783 18.5448 8.18163C18.3211 7.06494 17.5977 6.11237 16.5821 5.59677C15.5666 5.08118 14.3707 5.05955 13.3371 5.53796C12.4017 2.96139 9.55469 1.63106 6.97811 2.56645C4.40154 3.50205 3.07122 6.34905 4.00661 8.92562C1.74958 8.99677 -0.0332819 10.8649 0.000471443 13.1228C0.0344269 15.3808 1.87267 17.1944 4.13091 17.198" fill="#A3D4F7"/>
<path d="M16.9628 21.7513C16.2797 21.7662 15.6034 21.6108 14.9952 21.2991C14.4962 21.037 13.9382 20.9076 13.3749 20.9234C12.8112 20.9076 12.2529 21.037 11.7539 21.2991C11.1457 21.6108 10.4694 21.766 9.78629 21.7513C9.10354 21.766 8.42767 21.6108 7.8197 21.2991C7.32129 21.037 6.76365 20.9076 6.20055 20.9234C5.97176 20.9234 5.78662 20.7381 5.78662 20.5095C5.78662 20.2809 5.97176 20.0955 6.20055 20.0955C6.8833 20.0806 7.55918 20.236 8.16714 20.5475C8.66556 20.8098 9.2232 20.9392 9.78629 20.9234C10.3498 20.9392 10.9078 20.8096 11.4069 20.5475C12.0152 20.236 12.6915 20.0806 13.3749 20.0955C14.0578 20.0806 14.7337 20.236 15.3418 20.5475C15.8409 20.8096 16.3991 20.9392 16.9628 20.9234C17.1914 20.9234 17.3767 21.1088 17.3767 21.3373C17.3767 21.5659 17.1914 21.7513 16.9628 21.7513Z" fill="#60A2D7"/>
<path d="M16.9628 16.7841C16.2797 16.799 15.6034 16.6436 14.9952 16.332C14.4962 16.0698 13.9382 15.9405 13.3749 15.9562C12.8112 15.9405 12.2529 16.0698 11.7539 16.332C11.1457 16.6436 10.4694 16.7988 9.78629 16.7841C9.10354 16.7988 8.42767 16.6436 7.8197 16.332C7.32129 16.0698 6.76365 15.9405 6.20055 15.9562C5.97176 15.9562 5.78662 15.7709 5.78662 15.5423C5.78662 15.3137 5.97176 15.1284 6.20055 15.1284C6.8833 15.1134 7.55918 15.2688 8.16714 15.5803C8.66556 15.8426 9.2232 15.972 9.78629 15.9562C10.3498 15.972 10.9078 15.8424 11.4069 15.5803C12.0152 15.2688 12.6915 15.1134 13.3749 15.1284C14.0578 15.1134 14.7337 15.2688 15.3418 15.5803C15.8409 15.8424 16.3991 15.972 16.9628 15.9562C17.1914 15.9562 17.3767 16.1416 17.3767 16.3702C17.3767 16.5987 17.1914 16.7841 16.9628 16.7841Z" fill="#60A2D7"/>
<path d="M16.9628 14.3005C16.2797 14.3154 15.6034 14.16 14.9952 13.8484C14.4962 13.5862 13.9382 13.4569 13.3749 13.4726C12.8112 13.4569 12.2529 13.5862 11.7539 13.8484C11.1457 14.16 10.4694 14.3152 9.78629 14.3005C9.10354 14.3152 8.42767 14.16 7.8197 13.8484C7.32129 13.5862 6.76365 13.4569 6.20055 13.4726C5.97176 13.4726 5.78662 13.2873 5.78662 13.0587C5.78662 12.8301 5.97176 12.6448 6.20055 12.6448C6.8833 12.6298 7.55918 12.7852 8.16714 13.0967C8.66556 13.359 9.2232 13.4884 9.78629 13.4726C10.3498 13.4884 10.9078 13.3588 11.4069 13.0967C12.0152 12.7852 12.6915 12.6298 13.3749 12.6448C14.0578 12.6298 14.7337 12.7852 15.3418 13.0967C15.8409 13.3588 16.3991 13.4884 16.9628 13.4726C17.1914 13.4726 17.3767 13.658 17.3767 13.8866C17.3767 14.1151 17.1914 14.3005 16.9628 14.3005Z" fill="#60A2D7"/>
<path d="M16.9628 19.2677C16.2797 19.2826 15.6034 19.1272 14.9952 18.8155C14.4962 18.5534 13.9382 18.424 13.3749 18.4398C12.8112 18.424 12.2529 18.5534 11.7539 18.8155C11.1457 19.1272 10.4694 19.2824 9.78629 19.2677C9.10354 19.2824 8.42767 19.1272 7.8197 18.8155C7.32129 18.5534 6.76365 18.424 6.20055 18.4398C5.97176 18.4398 5.78662 18.2545 5.78662 18.0259C5.78662 17.7973 5.97176 17.6119 6.20055 17.6119C6.8833 17.597 7.55918 17.7524 8.16714 18.0639C8.66556 18.3262 9.2232 18.4556 9.78629 18.4398C10.3498 18.4556 10.9078 18.326 11.4069 18.0639C12.0152 17.7524 12.6915 17.597 13.3749 17.6119C14.0578 17.597 14.7337 17.7524 15.3418 18.0639C15.8409 18.326 16.3991 18.4556 16.9628 18.4398C17.1914 18.4398 17.3767 18.6252 17.3767 18.8537C17.3767 19.0823 17.1914 19.2677 16.9628 19.2677Z" fill="#60A2D7"/>
</g>
<defs>
<clipPath id="clip0_1075_26692">
<rect width="24" height="24" fill="white"/>
</clipPath>
</defs>
</svg>
