<svg width="24" height="24" viewBox="0 0 24 24" fill="none" xmlns="http://www.w3.org/2000/svg">
<g clip-path="url(#clip0_1075_26696)">
<path d="M19.0325 16.991H19.4464C21.1818 16.9913 22.7664 16.0049 23.5324 14.4476C24.2984 12.8905 24.1127 11.0333 23.0536 9.65869C21.9943 8.2839 20.2458 7.63086 18.5448 7.97466C18.3211 6.85797 17.5977 5.9054 16.5821 5.3898C15.5666 4.87421 14.3707 4.85258 13.3371 5.33099C12.4017 2.75442 9.55469 1.42409 6.97811 2.35948C4.40154 3.29508 3.07122 6.14208 4.00661 8.71865C1.74958 8.7898 -0.0332819 10.658 0.000471443 12.9158C0.0344269 15.1738 1.87267 16.9874 4.13091 16.991" fill="#A3D4F7"/>
<path d="M10.7538 11.196H7.44235L5.78662 16.1632H9.51202L8.34298 21.9582L13.2374 14.5074H9.92595L10.7538 11.196Z" fill="#FFA754"/>
<path d="M17.3767 19.4746C17.3767 20.389 16.6353 21.1304 15.7209 21.1304C14.8063 21.1304 14.0652 20.389 14.0652 19.4746C14.0652 18.2328 15.7209 15.3353 15.7209 15.3353C15.7209 15.3353 17.3767 18.2328 17.3767 19.4746Z" fill="#60A2D7"/>
</g>
<defs>
<clipPath id="clip0_1075_26696">
<rect width="24" height="24" fill="white"/>
</clipPath>
</defs>
</svg>
