<svg width="24" height="24" viewBox="0 0 24 24" fill="none" xmlns="http://www.w3.org/2000/svg">
<g clip-path="url(#clip0_1075_26691)">
<path d="M20.3306 9.76271C20.3306 13.1325 17.5987 15.8644 14.2289 15.8644C10.8589 15.8644 8.1272 13.1325 8.1272 9.76271C8.1272 6.39287 10.8589 3.66101 14.2289 3.66101C17.5987 3.66101 20.3306 6.39287 20.3306 9.76271Z" fill="#FDD020"/>
<path d="M14.229 2.44068C14.0042 2.44068 13.8223 2.25854 13.8223 2.0339V0.40678C13.8223 0.182137 14.0042 0 14.229 0C14.4537 0 14.6358 0.182137 14.6358 0.40678V2.0339C14.6358 2.25854 14.4537 2.44068 14.229 2.44068Z" fill="#FDD020"/>
<path d="M23.5849 10.1695H21.9578C21.733 10.1695 21.551 9.98735 21.551 9.76271C21.551 9.53806 21.733 9.35593 21.9578 9.35593H23.5849C23.8096 9.35593 23.9917 9.53806 23.9917 9.76271C23.9917 9.98735 23.8096 10.1695 23.5849 10.1695Z" fill="#FDD020"/>
<path d="M19.1104 15.0508C18.8128 15.0508 18.5159 15.0806 18.2243 15.1394C18.0044 14.042 17.2936 13.1059 16.2955 12.5992C15.2976 12.0926 14.1224 12.0713 13.1066 12.5414C12.1874 10.0094 9.38957 8.70207 6.85752 9.62129C4.32548 10.5407 3.01814 13.3385 3.93737 15.8706C1.71935 15.9407 -0.0327067 17.7764 0.000463295 19.9954C0.0338319 22.2142 1.84031 23.9964 4.05952 24H19.1104C21.5814 24 23.5849 21.9967 23.5849 19.5254C23.5849 17.0542 21.5814 15.0508 19.1104 15.0508Z" fill="#A3D4F7"/>
<path d="M8.5341 4.06779L6.90698 2.44067L8.5341 4.06779Z" fill="#FDD020"/>
<path d="M8.53411 4.47457C8.42605 4.47457 8.32277 4.43167 8.2465 4.3554L6.61938 2.72828C6.51351 2.62619 6.47121 2.47483 6.50835 2.33262C6.54569 2.19041 6.65672 2.07938 6.79894 2.04223C6.94115 2.00489 7.0923 2.0474 7.19459 2.15307L8.82171 3.78018C8.93791 3.89658 8.97266 4.07156 8.9097 4.22351C8.84674 4.37546 8.69857 4.47457 8.53411 4.47457Z" fill="#FDD020"/>
<path d="M19.9238 4.06779L21.5509 2.44067L19.9238 4.06779Z" fill="#FDD020"/>
<path d="M19.9239 4.47457C19.7592 4.47457 19.611 4.37546 19.5481 4.22351C19.4851 4.07156 19.5199 3.89658 19.6363 3.78018L21.2634 2.15307C21.3655 2.0474 21.5166 2.00489 21.6588 2.04223C21.8011 2.07938 21.9123 2.19041 21.9494 2.33262C21.9866 2.47483 21.9443 2.62619 21.8386 2.72828L20.2115 4.3554C20.1352 4.43167 20.0317 4.47457 19.9239 4.47457Z" fill="#FDD020"/>
</g>
<defs>
<clipPath id="clip0_1075_26691">
<rect width="24" height="24" fill="white"/>
</clipPath>
</defs>
</svg>
