<svg width="24" height="24" viewBox="0 0 24 24" fill="none" xmlns="http://www.w3.org/2000/svg">
<g clip-path="url(#clip0_1075_26676)">
<path d="M18.8 12C18.8 15.7555 15.7554 18.8 12 18.8C8.24448 18.8 5.19995 15.7555 5.19995 12C5.19995 8.24453 8.24448 5.2 12 5.2C15.7554 5.2 18.8 8.24453 18.8 12Z" fill="#FDD020"/>
<path d="M12.0001 24C11.7792 24 11.6001 23.8209 11.6001 23.6V20.4C11.6001 20.1791 11.7792 20 12.0001 20C12.221 20 12.4001 20.1791 12.4001 20.4V23.6C12.4001 23.8209 12.221 24 12.0001 24Z" fill="#FDD020"/>
<path d="M12.0001 4C11.7792 4 11.6001 3.8209 11.6001 3.6V0.4C11.6001 0.179102 11.7792 0 12.0001 0C12.221 0 12.4001 0.179102 12.4001 0.4V3.6C12.4001 3.8209 12.221 4 12.0001 4Z" fill="#FDD020"/>
<path d="M6.0001 6.00001L3.6001 3.60001L6.0001 6.00001Z" fill="#FDD020"/>
<path d="M5.99992 6.39999C5.89386 6.39999 5.7921 6.35781 5.7171 6.28281L3.3171 3.88281C3.16554 3.72578 3.16769 3.47636 3.32199 3.32206C3.47628 3.16777 3.7257 3.16562 3.88273 3.31718L6.28273 5.71718C6.39699 5.83163 6.43136 6.0037 6.36945 6.15312C6.30753 6.30253 6.16164 6.39999 5.99992 6.39999Z" fill="#FDD020"/>
<path d="M20.4 20.4L18 18L20.4 20.4Z" fill="#FDD020"/>
<path d="M20.4001 20.8C20.294 20.8 20.1923 20.7578 20.1173 20.6828L17.7173 18.2828C17.5657 18.1258 17.5678 17.8764 17.7221 17.7221C17.8764 17.5678 18.1258 17.5656 18.2829 17.7172L20.6829 20.1172C20.7971 20.2316 20.8315 20.4037 20.7696 20.5531C20.7077 20.7025 20.5618 20.8 20.4001 20.8Z" fill="#FDD020"/>
<path d="M18 6.00001L20.4 3.60001L18 6.00001Z" fill="#FDD020"/>
<path d="M18.0001 6.39999C17.8383 6.39999 17.6924 6.30253 17.6305 6.15312C17.5686 6.0037 17.603 5.83163 17.7172 5.71718L20.1172 3.31718C20.2743 3.16562 20.5237 3.16777 20.678 3.32206C20.8323 3.47636 20.8344 3.72578 20.6829 3.88281L18.2829 6.28281C18.2079 6.35781 18.1061 6.39999 18.0001 6.39999Z" fill="#FDD020"/>
<path d="M23.6 12.4H20.4C20.1791 12.4 20 12.2209 20 12C20 11.7791 20.1791 11.6 20.4 11.6H23.6C23.8209 11.6 24 11.7791 24 12C24 12.2209 23.8209 12.4 23.6 12.4Z" fill="#FDD020"/>
<path d="M3.6 12.4H0.4C0.179102 12.4 0 12.2209 0 12C0 11.7791 0.179102 11.6 0.4 11.6H3.6C3.8209 11.6 4 11.7791 4 12C4 12.2209 3.8209 12.4 3.6 12.4Z" fill="#FDD020"/>
<path d="M3.6001 20.4L6.0001 18L3.6001 20.4Z" fill="#FDD020"/>
<path d="M3.59991 20.8C3.43819 20.8 3.29229 20.7025 3.23038 20.5531C3.16846 20.4037 3.20284 20.2316 3.3171 20.1172L5.7171 17.7172C5.87413 17.5656 6.12354 17.5678 6.27784 17.7221C6.43214 17.8764 6.43428 18.1258 6.28272 18.2828L3.88272 20.6828C3.80772 20.7578 3.70596 20.8 3.59991 20.8Z" fill="#FDD020"/>
</g>
<defs>
<clipPath id="clip0_1075_26676">
<rect width="24" height="24" fill="white"/>
</clipPath>
</defs>
</svg>
