<svg width="24" height="24" viewBox="0 0 24 24" fill="none" xmlns="http://www.w3.org/2000/svg">
<g clip-path="url(#clip0_1075_26694)">
<path d="M19.0325 17.405H19.4464C21.1818 17.4052 22.7664 16.4189 23.5324 14.8616C24.2984 13.3045 24.1127 11.4472 23.0536 10.0726C21.9943 8.69783 20.2458 8.0448 18.5448 8.3886C18.3211 7.27191 17.5977 6.31933 16.5821 5.80374C15.5666 5.28814 14.3707 5.26651 13.3371 5.74492C12.4017 3.16835 9.55469 1.83802 6.97811 2.77341C4.40154 3.70901 3.07122 6.55601 4.00661 9.13258C1.74958 9.20373 -0.0332819 11.0719 0.000471443 13.3297C0.0344269 15.5878 1.87267 17.4013 4.13091 17.405" fill="#D0DAD9"/>
<path d="M17.3767 19.0607C17.3767 19.9751 16.6353 20.7165 15.7209 20.7165C14.8063 20.7165 14.0652 19.9751 14.0652 19.0607C14.0652 17.8189 15.7209 14.9214 15.7209 14.9214C15.7209 14.9214 17.3767 17.8189 17.3767 19.0607Z" fill="#60A2D7"/>
<path d="M13.2375 14.9214C13.2375 15.8358 12.4961 16.5771 11.5818 16.5771C10.6672 16.5771 9.92603 15.8358 9.92603 14.9214C9.92603 13.6796 11.5818 10.7821 11.5818 10.7821C11.5818 10.7821 13.2375 13.6796 13.2375 14.9214Z" fill="#60A2D7"/>
<path d="M9.09809 19.8886C9.09809 20.803 8.35673 21.5443 7.44235 21.5443C6.52778 21.5443 5.78662 20.803 5.78662 19.8886C5.78662 18.6468 7.44235 15.7493 7.44235 15.7493C7.44235 15.7493 9.09809 18.6468 9.09809 19.8886Z" fill="#60A2D7"/>
</g>
<defs>
<clipPath id="clip0_1075_26694">
<rect width="24" height="24" fill="white"/>
</clipPath>
</defs>
</svg>
