<svg width="24" height="24" viewBox="0 0 24 24" fill="none" xmlns="http://www.w3.org/2000/svg">
<g clip-path="url(#clip0_1075_26693)">
<path d="M21.1531 8.95312C21.1531 11.8729 18.7863 14.2399 15.8663 14.2399C12.9466 14.2399 10.5796 11.8729 10.5796 8.95312C10.5796 6.03333 12.9466 3.66637 15.8663 3.66637C18.7863 3.66637 21.1531 6.03333 21.1531 8.95312Z" fill="#FDD020"/>
<path d="M23.5931 9.35981H22.7797C22.5551 9.35981 22.373 9.17772 22.373 8.95314C22.373 8.72855 22.5551 8.54646 22.7797 8.54646H23.5931C23.8179 8.54646 23.9997 8.72855 23.9997 8.95314C23.9997 9.17772 23.8179 9.35981 23.5931 9.35981Z" fill="#FDD020"/>
<path d="M15.0529 2.44635C14.8283 2.44635 14.6462 2.26426 14.6462 2.03968V1.22633C14.6462 1.00175 14.8283 0.819656 15.0529 0.819656C15.2777 0.819656 15.4596 1.00175 15.4596 1.22633V2.03968C15.4596 2.26426 15.2777 2.44635 15.0529 2.44635Z" fill="#FDD020"/>
<path d="M20.7463 4.47971C20.5819 4.47971 20.4338 4.38063 20.3708 4.22852C20.3079 4.07661 20.3426 3.90187 20.459 3.78551L21.2723 2.97216C21.3744 2.86632 21.5255 2.82403 21.6677 2.86116C21.8099 2.89849 21.9209 3.00949 21.9582 3.15167C21.9953 3.29385 21.953 3.44496 21.8472 3.54722L21.0339 4.36057C20.9576 4.43682 20.8543 4.47971 20.7463 4.47971Z" fill="#FDD020"/>
<path d="M18.4608 19.12C19.9943 19.1567 21.4274 18.3596 22.2052 17.0373C22.9828 15.7149 22.9828 14.0751 22.2052 12.7526C21.4274 11.4303 19.9943 10.6332 18.4608 10.67C18.174 10.6702 17.8879 10.6982 17.6067 10.7538C17.2546 9.12588 15.8084 7.9686 14.143 7.98151C13.6339 7.98171 13.1305 8.09053 12.6669 8.30081C11.8501 6.20192 9.66545 4.97117 7.44721 5.36037C5.22897 5.74957 3.59374 7.65029 3.54032 9.90189C3.54131 10.4281 3.63464 10.95 3.81594 11.444C2.43607 11.4521 1.1668 12.2002 0.491262 13.4035C-0.184079 14.6068 -0.161839 16.08 0.550039 17.2623C1.26172 18.4444 2.55322 19.1537 3.9327 19.12" fill="#A3D4F7"/>
<path d="M16.6797 20.7467C16.6797 21.645 15.9515 22.3734 15.053 22.3734C14.1546 22.3734 13.4263 21.645 13.4263 20.7467C13.4263 19.5266 15.053 16.6799 15.053 16.6799C15.053 16.6799 16.6797 19.5266 16.6797 20.7467Z" fill="#60A2D7"/>
<path d="M12.613 16.6799C12.613 17.5783 11.8848 18.3066 10.9863 18.3066C10.088 18.3066 9.35962 17.5783 9.35962 16.6799C9.35962 15.4599 10.9863 12.6132 10.9863 12.6132C10.9863 12.6132 12.613 15.4599 12.613 16.6799Z" fill="#60A2D7"/>
<path d="M8.9531 21.56C8.9531 22.4583 8.22494 23.1867 7.3264 23.1867C6.42807 23.1867 5.69971 22.4583 5.69971 21.56C5.69971 20.34 7.3264 17.4933 7.3264 17.4933C7.3264 17.4933 8.9531 20.34 8.9531 21.56Z" fill="#60A2D7"/>
</g>
<defs>
<clipPath id="clip0_1075_26693">
<rect width="24" height="24" fill="white"/>
</clipPath>
</defs>
</svg>
