<svg width="24" height="24" viewBox="0 0 24 24" fill="none" xmlns="http://www.w3.org/2000/svg">
<g clip-path="url(#clip0_1075_26698)">
<path d="M19.0325 17.198H19.4464C21.1818 17.1982 22.7664 16.2119 23.5324 14.6546C24.2984 13.0975 24.1127 11.2402 23.0536 9.86566C21.9943 8.49087 20.2458 7.83783 18.5448 8.18163C18.3211 7.06494 17.5977 6.11237 16.5821 5.59677C15.5666 5.08117 14.3707 5.05955 13.3371 5.53795C12.4017 2.96138 9.55469 1.63106 6.97811 2.56645C4.40154 3.50204 3.07122 6.34905 4.00661 8.92562C1.74958 8.99676 -0.0332819 10.8649 0.000471443 13.1228C0.0344269 15.3808 1.87267 17.1944 4.13091 17.198" fill="#A3D4F7"/>
<path d="M8.55326 20.0694H7.48266L8.43199 19.1203C8.58884 18.9578 8.58661 18.6997 8.42694 18.54C8.26727 18.3803 8.00897 18.3781 7.84667 18.535L6.89753 19.4841V18.4137C6.89753 18.1851 6.71219 17.9998 6.4836 17.9998C6.2548 17.9998 6.06967 18.1851 6.06967 18.4137V19.4841L5.12053 18.535C4.95803 18.3781 4.69993 18.3803 4.54026 18.54C4.38058 18.6997 4.37816 18.9578 4.5352 19.1203L5.48434 20.0694H4.41393C4.18514 20.0694 4 20.2548 4 20.4834C4 20.712 4.18514 20.8973 4.41393 20.8973H5.48434L4.5352 21.8464C4.42747 21.9503 4.38442 22.1043 4.42222 22.249C4.46022 22.3938 4.5732 22.5067 4.71792 22.5445C4.86263 22.5825 5.01644 22.5393 5.12053 22.4318L6.06967 21.4826V22.553C6.06967 22.7816 6.2548 22.967 6.4836 22.967C6.71219 22.967 6.89753 22.7816 6.89753 22.553V21.4826L7.84667 22.4318C8.00897 22.5886 8.26727 22.5864 8.42694 22.4267C8.58661 22.267 8.58884 22.0089 8.43199 21.8464L7.48266 20.8973H8.55326C8.78186 20.8973 8.9672 20.712 8.9672 20.4834C8.9672 20.2548 8.78186 20.0694 8.55326 20.0694Z" fill="#B7F9FE"/>
<path d="M20.5533 21.0694H19.4827L20.432 20.1203C20.5888 19.9578 20.5866 19.6997 20.4269 19.54C20.2673 19.3803 20.009 19.3781 19.8467 19.535L18.8975 20.4841V19.4137C18.8975 19.1851 18.7122 18.9998 18.4836 18.9998C18.2548 18.9998 18.0697 19.1851 18.0697 19.4137V20.4841L17.1205 19.535C16.958 19.3781 16.6999 19.3803 16.5403 19.54C16.3806 19.6997 16.3782 19.9578 16.5352 20.1203L17.4843 21.0694H16.4139C16.1851 21.0694 16 21.2548 16 21.4834C16 21.712 16.1851 21.8973 16.4139 21.8973H17.4843L16.5352 22.8464C16.4275 22.9503 16.3844 23.1043 16.4222 23.249C16.4602 23.3938 16.5732 23.5067 16.7179 23.5445C16.8626 23.5825 17.0164 23.5393 17.1205 23.4318L18.0697 22.4826V23.553C18.0697 23.7816 18.2548 23.967 18.4836 23.967C18.7122 23.967 18.8975 23.7816 18.8975 23.553V22.4826L19.8467 23.4318C20.009 23.5886 20.2673 23.5864 20.4269 23.4267C20.5866 23.267 20.5888 23.0089 20.432 22.8464L19.4827 21.8973H20.5533C20.7819 21.8973 20.9672 21.712 20.9672 21.4834C20.9672 21.2548 20.7819 21.0694 20.5533 21.0694Z" fill="#B7F9FE"/>
<path d="M11.432 13.8464L10.4827 12.8973H11.5533C11.7819 12.8973 11.9672 12.712 11.9672 12.4834C11.9672 12.2548 11.7819 12.0694 11.5533 12.0694H10.4827L11.432 11.1203C11.5888 10.9578 11.5866 10.6997 11.4269 10.54C11.2673 10.3803 11.009 10.3781 10.8467 10.535L9.89753 11.4841V10.4137C9.89753 10.1851 9.71219 9.99976 9.4836 9.99976C9.2548 9.99976 9.06967 10.1851 9.06967 10.4137V11.4841L8.12053 10.535C7.95803 10.3781 7.69993 10.3803 7.54026 10.54C7.38058 10.6997 7.37816 10.9578 7.5352 11.1203L8.48434 12.0694H7.41393C7.18514 12.0694 7 12.2548 7 12.4834C7 12.712 7.18514 12.8973 7.41393 12.8973H8.48434L7.5352 13.8464C7.42747 13.9503 7.38442 14.1043 7.42222 14.249C7.46022 14.3938 7.5732 14.5067 7.71792 14.5445C7.86263 14.5825 8.01644 14.5393 8.12053 14.4318L9.06967 13.4826V14.553C9.06967 14.7816 9.2548 14.967 9.4836 14.967C9.71219 14.967 9.89753 14.7816 9.89753 14.553V13.4826L10.8467 14.4318C11.009 14.5886 11.2673 14.5864 11.4269 14.4267C11.5866 14.267 11.5888 14.0089 11.432 13.8464Z" fill="#B7F9FE"/>
<path d="M18.3115 13.6555C18.3115 14.5699 17.5701 15.3112 16.6557 15.3112C15.7412 15.3112 15 14.5699 15 13.6555C15 12.7411 15.7412 11.9998 16.6557 11.9998C17.5701 11.9998 18.3115 12.7411 18.3115 13.6555Z" fill="#B7F9FE"/>
</g>
<defs>
<clipPath id="clip0_1075_26698">
<rect width="24" height="24" fill="white"/>
</clipPath>
</defs>
</svg>
