<svg width="24" height="24" viewBox="0 0 24 24" fill="none" xmlns="http://www.w3.org/2000/svg">
<g clip-path="url(#clip0_1075_26697)">
<path d="M19.0325 17.405H19.4464C21.1818 17.4052 22.7664 16.4189 23.5324 14.8616C24.2984 13.3045 24.1127 11.4472 23.0536 10.0726C21.9943 8.69783 20.2458 8.0448 18.5448 8.3886C18.3211 7.27191 17.5977 6.31933 16.5821 5.80374C15.5666 5.28814 14.3707 5.26651 13.3371 5.74492C12.4017 3.16835 9.55469 1.83802 6.97811 2.77341C4.40154 3.70901 3.07122 6.55601 4.00661 9.13258C1.74958 9.20373 -0.0332819 11.0719 0.000471443 13.3297C0.0344269 15.5878 1.87267 17.4013 4.13091 17.405" fill="#A3D4F7"/>
<path d="M13.7254 19.6558H13.0687L13.6041 19.1206C13.761 18.9581 13.7587 18.6999 13.5991 18.5403C13.4394 18.3806 13.1811 18.3784 13.0188 18.5352L12.4836 19.0704V18.414C12.4836 18.1854 12.2983 18 12.0697 18C11.8409 18 11.6557 18.1854 11.6557 18.414V19.0704L11.1205 18.5352C10.958 18.3784 10.6999 18.3806 10.5403 18.5403C10.3806 18.6999 10.3782 18.9581 10.5352 19.1206L11.0704 19.6558H10.4139C10.1851 19.6558 10 19.8411 10 20.0697C10 20.2983 10.1851 20.4836 10.4139 20.4836H11.0704L10.5352 21.0188C10.4275 21.1227 10.3844 21.2767 10.4222 21.4214C10.4602 21.5662 10.5732 21.6791 10.7179 21.7169C10.8626 21.7549 11.0164 21.7117 11.1205 21.6042L11.6557 21.0689V21.7254C11.6557 21.954 11.8409 22.1394 12.0697 22.1394C12.2983 22.1394 12.4836 21.954 12.4836 21.7254V21.0689L13.0188 21.6042C13.1811 21.761 13.4394 21.7588 13.5991 21.5991C13.7587 21.4394 13.761 21.1813 13.6041 21.0188L13.0687 20.4836H13.7254C13.954 20.4836 14.1393 20.2983 14.1393 20.0697C14.1393 19.8411 13.954 19.6558 13.7254 19.6558Z" fill="#B7F9FE"/>
<path d="M12.7254 14.6558H12.0687L12.6041 14.1206C12.761 13.9581 12.7587 13.6999 12.5991 13.5403C12.4394 13.3806 12.1811 13.3784 12.0188 13.5352L11.4836 14.0704V13.414C11.4836 13.1854 11.2983 13 11.0697 13C10.8409 13 10.6557 13.1854 10.6557 13.414V14.0704L10.1205 13.5352C9.95803 13.3784 9.69993 13.3806 9.54026 13.5403C9.38058 13.6999 9.37816 13.9581 9.5352 14.1206L10.0704 14.6558H9.41393C9.18514 14.6558 9 14.8411 9 15.0697C9 15.2983 9.18514 15.4836 9.41393 15.4836H10.0704L9.5352 16.0188C9.42747 16.1227 9.38442 16.2767 9.42222 16.4214C9.46022 16.5662 9.5732 16.6791 9.71792 16.7169C9.86263 16.7549 10.0164 16.7117 10.1205 16.6042L10.6557 16.0689V16.7254C10.6557 16.954 10.8409 17.1394 11.0697 17.1394C11.2983 17.1394 11.4836 16.954 11.4836 16.7254V16.0689L12.0188 16.6042C12.1811 16.761 12.4394 16.7588 12.5991 16.5991C12.7587 16.4394 12.761 16.1813 12.6041 16.0188L12.0687 15.4836H12.7254C12.954 15.4836 13.1393 15.2983 13.1393 15.0697C13.1393 14.8411 12.954 14.6558 12.7254 14.6558Z" fill="#B7F9FE"/>
<path d="M19.3115 20.1394C19.3115 21.0537 18.5701 21.7951 17.6557 21.7951C16.7412 21.7951 16 21.0537 16 20.1394C16 18.8976 17.6557 16 17.6557 16C17.6557 16 19.3115 18.8976 19.3115 20.1394Z" fill="#60A2D7"/>
<path d="M8.31147 18.1394C8.31147 19.0537 7.5701 19.7951 6.65573 19.7951C5.74116 19.7951 5 19.0537 5 18.1394C5 16.8976 6.65573 14 6.65573 14C6.65573 14 8.31147 16.8976 8.31147 18.1394Z" fill="#60A2D7"/>
</g>
<defs>
<clipPath id="clip0_1075_26697">
<rect width="24" height="24" fill="white"/>
</clipPath>
</defs>
</svg>
