<svg width="24" height="24" viewBox="0 0 24 24" fill="none" xmlns="http://www.w3.org/2000/svg">
<g clip-path="url(#clip0_1075_26702)">
<path d="M21.147 8.51581C21.147 11.4413 18.7754 13.8129 15.8498 13.8129C12.9243 13.8129 10.5527 11.4413 10.5527 8.51581C10.5527 5.5903 12.9243 3.2187 15.8498 3.2187C18.7754 3.2187 21.147 5.5903 21.147 8.51581Z" fill="#FDD020"/>
<path d="M23.5918 8.92328H22.7769C22.5333 8.92328 22.3694 8.76093 22.3694 8.51581C22.3694 8.27228 22.5333 8.10834 22.7769 8.10834H23.5918C23.8369 8.10834 23.9993 8.27228 23.9993 8.51581C23.9993 8.76093 23.8369 8.92328 23.5918 8.92328Z" fill="#FDD020"/>
<path d="M20.7394 4.03364C20.6185 4.03364 20.5357 3.99385 20.4545 3.91108C20.2922 3.74873 20.2922 3.50361 20.4545 3.34126L21.2695 2.52632C21.4334 2.36396 21.6769 2.36396 21.8409 2.52632C22.0032 2.68867 22.0032 2.93379 21.8409 3.09614L21.0259 3.91108C20.9432 3.99385 20.862 4.03364 20.7394 4.03364Z" fill="#FDD020"/>
<path d="M18.4587 18.7026C20.781 18.7439 22.7372 16.9103 22.777 14.5881C22.8183 12.2642 20.9847 10.3096 18.6625 10.2682C18.5813 10.2682 18.5399 10.2682 18.4587 10.2682C18.1738 10.2682 17.8873 10.3096 17.6024 10.3494C17.2363 8.71954 15.8102 7.57831 14.1389 7.57831C13.6089 7.57831 13.1202 7.70087 12.673 7.9046C11.7355 5.45978 8.96435 4.27876 6.56091 5.21625C4.76708 5.90864 3.58606 7.61969 3.54467 9.53448C3.54467 10.0645 3.62585 10.5945 3.82958 11.0832C1.71106 11.0832 0 12.8356 0 14.9542C0 17.0727 1.71106 18.7026 3.82958 18.7026H3.91235" fill="#D0DAD9"/>
<path d="M10.9602 12.998H7.70044L6.07056 17.8876H9.73779L8.59815 23.5922L13.405 16.2577H10.1453L10.9602 12.998Z" fill="#FFA754"/>
<path d="M16.6648 21.9623C16.6648 22.8584 15.9326 23.5922 15.0349 23.5922C14.1388 23.5922 13.405 22.8584 13.405 21.9623C13.405 20.7399 15.0349 17.8876 15.0349 17.8876C15.0349 17.8876 16.6648 20.7399 16.6648 21.9623Z" fill="#60A2D7"/>
<path d="M15.4424 1.18135C15.4424 1.40736 15.2609 1.58882 15.0349 1.58882C14.8105 1.58882 14.6274 1.40736 14.6274 1.18135C14.6274 0.95692 14.8105 0.773876 15.0349 0.773876C15.2609 0.773876 15.4424 0.95692 15.4424 1.18135Z" fill="#FDD020"/>
</g>
<defs>
<clipPath id="clip0_1075_26702">
<rect width="24" height="24" fill="white"/>
</clipPath>
</defs>
</svg>
