<svg width="24" height="24" viewBox="0 0 24 24" fill="none" xmlns="http://www.w3.org/2000/svg">
<g clip-path="url(#clip0_1075_26695)">
<path d="M19.0325 17.405H19.4464C21.1818 17.4052 22.7664 16.4189 23.5324 14.8616C24.2984 13.3045 24.1127 11.4472 23.0536 10.0726C21.9943 8.69783 20.2458 8.0448 18.5448 8.3886C18.3211 7.27191 17.5977 6.31933 16.5821 5.80374C15.5666 5.28814 14.3707 5.26651 13.3371 5.74492C12.4017 3.16835 9.55469 1.83802 6.97811 2.77341C4.40154 3.70901 3.07122 6.55601 4.00661 9.13258C1.74958 9.20373 -0.0332819 11.0719 0.000471443 13.3297C0.0344269 15.5878 1.87267 17.4013 4.13091 17.405" fill="#D0DAD9"/>
<path d="M21.3115 20.1392C21.3115 21.0535 20.5701 21.7949 19.6557 21.7949C18.7412 21.7949 18 21.0535 18 20.1392C18 18.8974 19.6557 15.9998 19.6557 15.9998C19.6557 15.9998 21.3115 18.8974 21.3115 20.1392Z" fill="#60A2D7"/>
<path d="M9.31147 15.1392C9.31147 16.0535 8.5701 16.7949 7.65573 16.7949C6.74116 16.7949 6 16.0535 6 15.1392C6 13.8974 7.65573 10.9998 7.65573 10.9998C7.65573 10.9998 9.31147 13.8974 9.31147 15.1392Z" fill="#60A2D7"/>
<path d="M18.3115 15.1392C18.3115 16.0535 17.5701 16.7949 16.6557 16.7949C15.7412 16.7949 15 16.0535 15 15.1392C15 13.8974 16.6557 10.9998 16.6557 10.9998C16.6557 10.9998 18.3115 13.8974 18.3115 15.1392Z" fill="#60A2D7"/>
<path d="M13.3115 20.1392C13.3115 21.0535 12.5701 21.7949 11.6557 21.7949C10.7412 21.7949 10 21.0535 10 20.1392C10 18.8974 11.6557 15.9998 11.6557 15.9998C11.6557 15.9998 13.3115 18.8974 13.3115 20.1392Z" fill="#60A2D7"/>
<path d="M5.31147 19.9673C5.31147 20.8817 4.5701 21.623 3.65573 21.623C2.74116 21.623 2 20.8817 2 19.9673C2 18.7255 3.65573 15.8279 3.65573 15.8279C3.65573 15.8279 5.31147 18.7255 5.31147 19.9673Z" fill="#60A2D7"/>
</g>
<defs>
<clipPath id="clip0_1075_26695">
<rect width="24" height="24" fill="white"/>
</clipPath>
</defs>
</svg>
