<svg width="24" height="24" viewBox="0 0 24 24" fill="none" xmlns="http://www.w3.org/2000/svg">
<g clip-path="url(#clip0_1075_26707)">
<path d="M19.0325 14.9309H19.4464C21.1818 14.9311 22.7664 13.9447 23.5324 12.3874C24.2984 10.8303 24.1127 8.97309 23.0536 7.5985C21.9943 6.2237 20.2458 5.57067 18.5448 5.91447C18.3211 4.79778 17.5977 3.84521 16.5821 3.32961C15.5666 2.81401 14.3707 2.79238 13.3371 3.27079C12.4017 0.694221 9.55469 -0.636106 6.97811 0.299286C4.40154 1.23488 3.07122 4.08188 4.00661 6.65845C1.74958 6.7296 -0.0332819 8.59776 0.000471443 10.8556C0.0344269 13.1136 1.87267 14.9272 4.13091 14.9309" fill="#D0DAD9"/>
<path d="M21.2058 16H20.0924C19.901 16 19.7242 16.1021 19.6284 16.2679L19.0718 17.2321C18.9761 17.3979 18.9761 17.6021 19.0718 17.7679L19.6284 18.7321C19.7242 18.8979 19.901 19 20.0925 19H21.2058C21.3972 19 21.5741 18.8979 21.6698 18.7321L22.2265 17.7679C22.3222 17.6021 22.3222 17.3979 22.2265 17.2321L21.6698 16.2679C21.5741 16.1021 21.3972 16 21.2058 16Z" fill="#91DAFA"/>
<path d="M22.2267 17.7677C22.3224 17.602 22.3224 17.3977 22.2267 17.2319L22.0648 16.9514L21.8577 16.5927C21.5289 17.479 20.6759 18.1107 19.6752 18.1107C19.5289 18.1107 19.3859 18.0966 19.2471 18.0708L19.6288 18.7319C19.7245 18.8976 19.9014 18.9997 20.0928 18.9998H21.2062C21.3976 18.9998 21.5744 18.8976 21.6701 18.7319L21.8886 18.3535L22.2267 17.7677Z" fill="#75CFF9"/>
<path d="M4.20579 20H3.09249C2.90109 20 2.7242 20.1021 2.62845 20.2679L2.07178 21.2321C1.97607 21.3979 1.97607 21.6021 2.07178 21.7679L2.62845 22.7321C2.72415 22.8979 2.90104 23 3.09249 23H4.20579C4.39719 23 4.57408 22.8979 4.66983 22.7321L5.22651 21.7679C5.32221 21.6021 5.32221 21.3979 5.22651 21.2321L4.66983 20.2679C4.57408 20.1021 4.39719 20 4.20579 20Z" fill="#91DAFA"/>
<path d="M4.20607 22.9998C4.39747 22.9998 4.57436 22.8976 4.67006 22.7319L5.22673 21.7677C5.32243 21.6019 5.32243 21.3977 5.22673 21.2319L4.85772 20.5927C4.5289 21.479 3.67587 22.1107 2.67517 22.1107C2.52887 22.1107 2.38589 22.0966 2.24707 22.0708L2.62878 22.7319C2.72448 22.8977 2.90132 22.9998 3.09272 22.9998H4.20607Z" fill="#75CFF9"/>
<path d="M8.20579 16H7.09249C6.90109 16 6.7242 16.1021 6.62845 16.2679L6.07178 17.2321C5.97607 17.3979 5.97607 17.6021 6.07178 17.7679L6.62845 18.7321C6.72415 18.8979 6.90104 19 7.09249 19H8.20579C8.39719 19 8.57408 18.8979 8.66983 18.7321L9.22651 17.7679C9.32221 17.6021 9.32221 17.3979 9.22651 17.2321L8.66983 16.2679C8.57408 16.1021 8.39719 16 8.20579 16Z" fill="#91DAFA"/>
<path d="M8.20607 18.9998C8.39747 18.9998 8.57436 18.8976 8.67006 18.7319L9.22673 17.7677C9.32243 17.6019 9.32243 17.3977 9.22673 17.2319L8.85772 16.5927C8.5289 17.479 7.67587 18.1107 6.67517 18.1107C6.52887 18.1107 6.38589 18.0966 6.24707 18.0708L6.62878 18.7319C6.72448 18.8977 6.90132 18.9998 7.09272 18.9998H8.20607Z" fill="#75CFF9"/>
<path d="M17.2058 20H16.0925C15.9011 20 15.7242 20.1021 15.6285 20.2679L15.0718 21.2321C14.9761 21.3979 14.9761 21.6021 15.0718 21.7679L15.6285 22.7321C15.7242 22.8979 15.901 23 16.0925 23H17.2058C17.3972 23 17.5741 22.8979 17.6698 22.7321L18.2265 21.7679C18.3222 21.6021 18.3222 21.3979 18.2265 21.2321L17.6698 20.2679C17.5741 20.1021 17.3972 20 17.2058 20Z" fill="#91DAFA"/>
<path d="M17.2061 22.9998C17.3975 22.9998 17.5744 22.8976 17.6701 22.7319L18.2267 21.7677C18.3224 21.6019 18.3224 21.3977 18.2267 21.2319L17.8577 20.5927C17.5289 21.479 16.6759 22.1107 15.6752 22.1107C15.5289 22.1107 15.3859 22.0966 15.2471 22.0708L15.6288 22.7319C15.7245 22.8977 15.9013 22.9998 16.0927 22.9998H17.2061Z" fill="#75CFF9"/>
<path d="M13.8896 11H10.6299L9 15.8896H12.6672L11.5276 21.5942L16.3345 14.2598H13.0747L13.8896 11Z" fill="#FFA754"/>
</g>
<defs>
<clipPath id="clip0_1075_26707">
<rect width="24" height="24" fill="white"/>
</clipPath>
</defs>
</svg>
