<svg width="24" height="24" viewBox="0 0 24 24" fill="none" xmlns="http://www.w3.org/2000/svg">
<g clip-path="url(#clip0_1075_26701)">
<path d="M21.1524 8.54237C21.1524 11.4629 18.7849 13.8305 15.8643 13.8305C12.9438 13.8305 10.5762 11.4629 10.5762 8.54237C10.5762 5.62182 12.9438 3.25424 15.8643 3.25424C18.7849 3.25424 21.1524 5.62182 21.1524 8.54237Z" fill="#FDD020"/>
<path d="M23.5931 8.94915H22.7796C22.5549 8.94915 22.3728 8.76702 22.3728 8.54237C22.3728 8.31773 22.5549 8.13559 22.7796 8.13559H23.5931C23.8178 8.13559 23.9999 8.31773 23.9999 8.54237C23.9999 8.76702 23.8178 8.94915 23.5931 8.94915Z" fill="#FDD020"/>
<path d="M15.0508 2.0339C14.8262 2.0339 14.644 1.85176 14.644 1.62712V0.81356C14.644 0.588917 14.8262 0.40678 15.0508 0.40678C15.2755 0.40678 15.4576 0.588917 15.4576 0.81356V1.62712C15.4576 1.85176 15.2755 2.0339 15.0508 2.0339Z" fill="#FDD020"/>
<path d="M20.7456 4.0678C20.5811 4.0678 20.4328 3.96868 20.3698 3.81674C20.3068 3.66479 20.3418 3.4898 20.458 3.37341L21.2716 2.55985C21.3737 2.45418 21.525 2.41168 21.6672 2.44902C21.8094 2.48616 21.9205 2.59719 21.9576 2.73941C21.9949 2.88162 21.9524 3.03297 21.8468 3.13506L21.0332 3.94862C20.9569 4.02489 20.8535 4.0678 20.7456 4.0678Z" fill="#FDD020"/>
<path d="M17.8983 18.7119H18.4592C19.9934 18.7488 21.4268 17.9513 22.2047 16.6287C22.9825 15.3061 22.9825 13.6657 22.2047 12.343C21.4268 11.0202 19.9934 10.2229 18.4592 10.2599C18.1724 10.2599 17.8864 10.2881 17.6049 10.3437C17.2528 8.71537 15.8064 7.5576 14.1406 7.57051C13.6311 7.57071 13.1278 7.67955 12.6638 7.8899C11.8471 5.79045 9.66181 4.55939 7.443 4.94869C5.22398 5.33799 3.58832 7.23921 3.53489 9.49139C3.53608 10.0177 3.62944 10.5397 3.81078 11.0339C1.71173 11.0712 0.0232389 12.7711 0 14.8703C0 16.992 1.89883 18.7119 4.0678 18.7119" fill="#A3D4F7"/>
<path d="M9.76266 20.7458H8.71076L9.64349 19.813C9.79762 19.6533 9.79543 19.3997 9.63852 19.2428C9.48161 19.0859 9.22797 19.0837 9.06828 19.2378L8.13554 20.1706V19.1186C8.13554 18.894 7.95341 18.7119 7.72876 18.7119C7.50412 18.7119 7.32198 18.894 7.32198 19.1186V20.1706L6.38925 19.2378C6.22956 19.0837 5.97592 19.0859 5.819 19.2428C5.66209 19.3997 5.65991 19.6533 5.81404 19.813L6.74677 20.7458H5.69487C5.47022 20.7458 5.28809 20.9279 5.28809 21.1525C5.28809 21.3772 5.47022 21.5593 5.69487 21.5593H6.74677L5.81404 22.4921C5.70837 22.5941 5.66587 22.7455 5.70321 22.8877C5.74035 23.0299 5.85138 23.141 5.99359 23.1781C6.13581 23.2154 6.28716 23.1729 6.38925 23.0673L7.32198 22.1345V23.1864C7.32198 23.4111 7.50412 23.5932 7.72876 23.5932C7.95341 23.5932 8.13554 23.4111 8.13554 23.1864V22.1345L9.06828 23.0673C9.22797 23.2214 9.48161 23.2192 9.63852 23.0623C9.79543 22.9054 9.79762 22.6518 9.64349 22.4921L8.71076 21.5593H9.76266C9.9873 21.5593 10.1694 21.3772 10.1694 21.1525C10.1694 20.9279 9.9873 20.7458 9.76266 20.7458Z" fill="#B7F9FE"/>
<path d="M16.2712 19.9322H15.2193L16.152 18.9995C16.3062 18.8398 16.304 18.5861 16.1471 18.4292C15.9902 18.2723 15.7365 18.2701 15.5768 18.4243L14.6441 19.357V18.3051C14.6441 18.0804 14.462 17.8983 14.2373 17.8983C14.0127 17.8983 13.8305 18.0804 13.8305 18.3051V19.357L12.8978 18.4243C12.7381 18.2701 12.4845 18.2723 12.3275 18.4292C12.1706 18.5861 12.1685 18.8398 12.3226 18.9995L13.2553 19.9322H12.2034C11.9788 19.9322 11.7966 20.1143 11.7966 20.339C11.7966 20.5636 11.9788 20.7458 12.2034 20.7458H13.2553L12.3226 21.6785C12.2169 21.7806 12.1744 21.9319 12.2118 22.0742C12.2489 22.2164 12.3599 22.3274 12.5021 22.3645C12.6444 22.4019 12.7957 22.3594 12.8978 22.2537L13.8305 21.321V22.3729C13.8305 22.5975 14.0127 22.7797 14.2373 22.7797C14.462 22.7797 14.6441 22.5975 14.6441 22.3729V21.321L15.5768 22.2537C15.7365 22.4078 15.9902 22.4057 16.1471 22.2487C16.304 22.0918 16.3062 21.8382 16.152 21.6785L15.2193 20.7458H16.2712C16.4958 20.7458 16.678 20.5636 16.678 20.339C16.678 20.1143 16.4958 19.9322 16.2712 19.9322Z" fill="#B7F9FE"/>
<path d="M12.2033 15.0508H11.1514L12.0842 14.1181C12.2383 13.9584 12.2361 13.7048 12.0792 13.5479C11.9223 13.391 11.6686 13.3888 11.509 13.5429L10.5762 14.4756V13.4237C10.5762 13.1991 10.3941 13.0169 10.1694 13.0169C9.9448 13.0169 9.76266 13.1991 9.76266 13.4237V14.4756L8.82993 13.5429C8.67023 13.3888 8.41659 13.391 8.25968 13.5479C8.10277 13.7048 8.10058 13.9584 8.25471 14.1181L9.18745 15.0508H8.13554C7.9109 15.0508 7.72876 15.233 7.72876 15.4576C7.72876 15.6823 7.9109 15.8644 8.13554 15.8644H9.18745L8.25471 16.7971C8.14905 16.8992 8.10654 17.0506 8.14388 17.1928C8.18102 17.335 8.29205 17.446 8.43427 17.4832C8.57648 17.5205 8.72783 17.478 8.82993 17.3724L9.76266 16.4396V17.4915C9.76266 17.7162 9.9448 17.8983 10.1694 17.8983C10.3941 17.8983 10.5762 17.7162 10.5762 17.4915V16.4396L11.509 17.3724C11.6686 17.5265 11.9223 17.5243 12.0792 17.3674C12.2361 17.2105 12.2383 16.9568 12.0842 16.7971L11.1514 15.8644H12.2033C12.428 15.8644 12.6101 15.6823 12.6101 15.4576C12.6101 15.233 12.428 15.0508 12.2033 15.0508Z" fill="#B7F9FE"/>
</g>
<defs>
<clipPath id="clip0_1075_26701">
<rect width="24" height="24" fill="white"/>
</clipPath>
</defs>
</svg>
