<svg width="24" height="24" viewBox="0 0 24 24" fill="none" xmlns="http://www.w3.org/2000/svg">
<g clip-path="url(#clip0_1075_26700)">
<path d="M19.0325 15.3353H19.4464C21.1818 15.3355 22.7664 14.3492 23.5324 12.7919C24.2984 11.2348 24.1127 9.37755 23.0536 8.00296C21.9943 6.62817 20.2458 5.97513 18.5448 6.31893C18.3211 5.20224 17.5977 4.24967 16.5821 3.73407C15.5666 3.21847 14.3707 3.19685 13.3371 3.67526C12.4017 1.09868 9.55469 -0.231643 6.97811 0.703749C4.40154 1.63934 3.07122 4.48635 4.00661 7.06292C1.74958 7.13406 -0.0332819 9.00222 0.000471443 11.2601C0.0344269 13.5181 1.87267 15.3317 4.13091 15.3353" fill="#D0DAD9"/>
<path d="M6.61449 10.5751C7.07167 10.5751 7.44235 10.9458 7.44235 11.403V21.3373C7.44235 21.7945 7.07167 22.1652 6.61449 22.1652C6.1571 22.1652 5.78662 21.7945 5.78662 21.3373V11.403C5.78662 10.9458 6.1571 10.5751 6.61449 10.5751Z" fill="#60A2D7"/>
<path d="M9.92601 9.54025C10.3832 9.54025 10.7539 9.91093 10.7539 10.3681V22.7861C10.7539 23.2433 10.3832 23.614 9.92601 23.614C9.46862 23.614 9.09814 23.2433 9.09814 22.7861V10.3681C9.09814 9.91093 9.46862 9.54025 9.92601 9.54025Z" fill="#60A2D7"/>
<path d="M13.2375 10.7821C13.6947 10.7821 14.0654 11.1527 14.0654 11.6099V21.5443C14.0654 22.0015 13.6947 22.3722 13.2375 22.3722C12.7801 22.3722 12.4097 22.0015 12.4097 21.5443V11.6099C12.4097 11.1527 12.7801 10.7821 13.2375 10.7821Z" fill="#60A2D7"/>
<path d="M16.5488 9.54025C17.006 9.54025 17.3767 9.91093 17.3767 10.3681V22.7861C17.3767 23.2433 17.006 23.614 16.5488 23.614C16.0914 23.614 15.7209 23.2433 15.7209 22.7861V10.3681C15.7209 9.91093 16.0914 9.54025 16.5488 9.54025Z" fill="#60A2D7"/>
</g>
<defs>
<clipPath id="clip0_1075_26700">
<rect width="24" height="24" fill="white"/>
</clipPath>
</defs>
</svg>
