<svg width="24" height="24" viewBox="0 0 24 24" fill="none" xmlns="http://www.w3.org/2000/svg">
<g clip-path="url(#clip0_1075_26699)">
<path d="M12 24C11.7349 24 11.52 23.7851 11.52 23.52V14.88C11.52 14.6149 11.7349 14.4 12 14.4C12.2651 14.4 12.48 14.6149 12.48 14.88V23.52C12.48 23.7851 12.2651 24 12 24Z" fill="#A3D4F7"/>
<path d="M13.9201 23.04C13.7928 23.04 13.6707 22.9894 13.5807 22.8994L12.0001 21.3188L10.4194 22.8994C10.231 23.0813 9.9317 23.0787 9.74654 22.8935C9.56139 22.7084 9.55881 22.4091 9.74068 22.2206L11.6607 20.3006C11.8482 20.1134 12.1519 20.1134 12.3394 20.3006L14.2594 22.2206C14.3965 22.358 14.4378 22.5645 14.3635 22.7438C14.2892 22.923 14.1141 23.04 13.9201 23.04Z" fill="#A3D4F7"/>
<path d="M12 9.6C11.7349 9.6 11.52 9.38508 11.52 9.12V0.48C11.52 0.214922 11.7349 0 12 0C12.2651 0 12.48 0.214922 12.48 0.48V9.12C12.48 9.38508 12.2651 9.6 12 9.6Z" fill="#A3D4F7"/>
<path d="M12.0001 3.84C11.8728 3.84 11.7507 3.78938 11.6607 3.69938L9.74068 1.77938C9.55881 1.59094 9.56139 1.29164 9.74654 1.10648C9.9317 0.921329 10.231 0.918751 10.4194 1.10063L12.0001 2.68125L13.5807 1.10063C13.7691 0.918751 14.0684 0.921329 14.2536 1.10648C14.4387 1.29164 14.4413 1.59094 14.2594 1.77938L12.3394 3.69938C12.2494 3.78938 12.1273 3.84 12.0001 3.84Z" fill="#A3D4F7"/>
<path d="M23.5199 12.48H14.8799C14.6148 12.48 14.3999 12.2651 14.3999 12C14.3999 11.7349 14.6148 11.52 14.8799 11.52H23.5199C23.785 11.52 23.9999 11.7349 23.9999 12C23.9999 12.2651 23.785 12.48 23.5199 12.48Z" fill="#A3D4F7"/>
<path d="M22.56 14.4C22.4327 14.4 22.3106 14.3494 22.2206 14.2594L20.3006 12.3394C20.1133 12.1519 20.1133 11.8481 20.3006 11.6606L22.2206 9.74063C22.409 9.55875 22.7083 9.56133 22.8935 9.74648C23.0787 9.93164 23.0812 10.2309 22.8994 10.4194L21.3187 12L22.8994 13.5806C23.0365 13.718 23.0777 13.9245 23.0034 14.1038C22.9291 14.283 22.754 14.4 22.56 14.4Z" fill="#A3D4F7"/>
<path d="M9.12 12.48H0.48C0.214922 12.48 0 12.2651 0 12C0 11.7349 0.214922 11.52 0.48 11.52H9.12C9.38508 11.52 9.6 11.7349 9.6 12C9.6 12.2651 9.38508 12.48 9.12 12.48Z" fill="#A3D4F7"/>
<path d="M1.43991 14.4C1.24585 14.4 1.07077 14.283 0.996473 14.1038C0.922177 13.9245 0.963427 13.718 1.10054 13.5806L2.68116 12L1.10054 10.4194C0.918661 10.2309 0.921239 9.93164 1.1064 9.74648C1.29155 9.56133 1.59085 9.55875 1.77929 9.74063L3.69929 11.6606C3.88655 11.8481 3.88655 12.1519 3.69929 12.3394L1.77929 14.2594C1.68929 14.3494 1.56718 14.4 1.43991 14.4Z" fill="#A3D4F7"/>
<path d="M21.6 21.6L17.76 20.64L16.8 16.8L20.64 17.76L21.6 21.6Z" fill="#B7F9FE"/>
<path d="M21.6001 22.08C21.5609 22.08 21.5218 22.0751 21.4838 22.0657L17.6438 21.1057C17.472 21.0628 17.3375 20.9285 17.2944 20.7567L16.3344 16.9167C16.2936 16.7531 16.3414 16.5802 16.4605 16.4609C16.5798 16.3416 16.7527 16.2935 16.9163 16.3343L20.7563 17.2943C20.9281 17.3372 21.0626 17.4715 21.1058 17.6433L22.0658 21.4833C22.1016 21.6267 22.0695 21.7788 21.9786 21.8953C21.8874 22.0118 21.748 22.08 21.6001 22.08ZM18.1557 20.2439L20.9396 20.94L20.2435 18.1561L17.4596 17.46L18.1557 20.2439Z" fill="#A3D4F7"/>
<path d="M16.7999 17.28C16.6726 17.28 16.5505 17.2294 16.4605 17.1394L13.5805 14.2594C13.3987 14.0709 13.4012 13.7716 13.5864 13.5865C13.7715 13.4013 14.0708 13.3988 14.2593 13.5806L17.1393 16.4606C17.2764 16.598 17.3176 16.8045 17.2433 16.9838C17.169 17.163 16.994 17.28 16.7999 17.28Z" fill="#A3D4F7"/>
<path d="M14.88 19.2C14.7408 19.2002 14.6082 19.1398 14.517 19.0345C14.4256 18.9293 14.3846 18.7896 14.4042 18.6518L14.8842 15.2918C14.9145 15.0809 15.0804 14.9152 15.2914 14.8847L18.6514 14.4047C18.9139 14.3672 19.1571 14.5493 19.1946 14.8118C19.2324 15.0743 19.0503 15.3176 18.7878 15.3553L15.7838 15.7842L15.3546 18.7882C15.3209 19.0245 15.1186 19.1998 14.88 19.2Z" fill="#A3D4F7"/>
<path d="M2.3999 21.6L6.2399 20.64L7.1999 16.8L3.3599 17.76L2.3999 21.6Z" fill="#B7F9FE"/>
<path d="M2.39999 22.08C2.2521 22.08 2.11264 22.0118 2.02147 21.8953C1.93053 21.7788 1.89842 21.6267 1.93428 21.4833L2.89428 17.6433C2.93741 17.4715 3.07194 17.3372 3.24374 17.2943L7.08374 16.3343C7.24733 16.2935 7.4203 16.3416 7.5396 16.4609C7.65866 16.5802 7.70647 16.7531 7.66569 16.9167L6.70569 20.7567C6.66256 20.9285 6.52803 21.0628 6.35624 21.1057L2.51624 22.0657C2.47827 22.0751 2.43913 22.08 2.39999 22.08ZM3.75561 18.1561L3.05952 20.94L5.84342 20.2439L6.53952 17.46L3.75561 18.1561Z" fill="#A3D4F7"/>
<path d="M7.19992 17.28C7.00586 17.28 6.83078 17.163 6.75648 16.9838C6.68219 16.8045 6.72344 16.598 6.86055 16.4606L9.74055 13.5806C9.92898 13.3988 10.2283 13.4013 10.4134 13.5865C10.5986 13.7716 10.6012 14.0709 10.4193 14.2594L7.5393 17.1394C7.4493 17.2294 7.32719 17.28 7.19992 17.28Z" fill="#A3D4F7"/>
<path d="M9.1201 19.2C8.8815 19.1998 8.67924 19.0245 8.64549 18.7882L8.21635 15.7842L5.21236 15.3553C4.94986 15.3176 4.76775 15.0743 4.80549 14.8118C4.84299 14.5493 5.08627 14.3672 5.34877 14.4047L8.70877 14.8847C8.91971 14.9152 9.08564 15.0809 9.11588 15.2918L9.59588 18.6518C9.61556 18.7896 9.57455 18.9293 9.48314 19.0345C9.39197 19.1398 9.25931 19.2002 9.1201 19.2Z" fill="#A3D4F7"/>
<path d="M21.6 2.4L17.76 3.36L16.8 7.2L20.64 6.24L21.6 2.4Z" fill="#B7F9FE"/>
<path d="M16.7999 7.68C16.652 7.68 16.5125 7.6118 16.4214 7.49531C16.3304 7.37883 16.2983 7.22672 16.3342 7.08328L17.2942 3.24328C17.3373 3.07148 17.4718 2.93719 17.6436 2.8943L21.4836 1.9343C21.6472 1.89352 21.8202 1.94156 21.9395 2.06086C22.0586 2.18016 22.1064 2.35312 22.0656 2.51672L21.1056 6.35672C21.0625 6.52852 20.9279 6.66281 20.7561 6.7057L16.9161 7.6657C16.8782 7.67508 16.839 7.68 16.7999 7.68ZM18.1555 3.75609L17.4594 6.54L20.2433 5.84391L20.9394 3.06L18.1555 3.75609Z" fill="#A3D4F7"/>
<path d="M13.9199 10.56C13.7258 10.56 13.5508 10.443 13.4765 10.2637C13.4022 10.0845 13.4434 9.87797 13.5805 9.74062L16.4605 6.86062C16.649 6.67875 16.9483 6.68133 17.1334 6.86648C17.3186 7.05164 17.3211 7.35094 17.1393 7.53937L14.2593 10.4194C14.1693 10.5094 14.0472 10.56 13.9199 10.56Z" fill="#A3D4F7"/>
<path d="M18.7201 9.6C18.6971 9.6 18.6742 9.59836 18.6514 9.59531L15.2914 9.11531C15.0805 9.08484 14.9145 8.91914 14.8843 8.7082L14.4043 5.3482C14.3668 5.0857 14.5489 4.84242 14.8114 4.80469C15.0739 4.76719 15.3172 4.9493 15.3547 5.2118L15.7838 8.21578L18.7878 8.64469C19.0372 8.68031 19.2167 8.90273 19.1989 9.15398C19.1811 9.40523 18.972 9.6 18.7201 9.6Z" fill="#A3D4F7"/>
<path d="M2.3999 2.4L6.2399 3.36L7.1999 7.2L3.3599 6.24L2.3999 2.4Z" fill="#B7F9FE"/>
<path d="M7.19992 7.68C7.16078 7.68 7.12164 7.67508 7.08367 7.6657L3.24367 6.7057C3.07188 6.66281 2.93735 6.52852 2.89422 6.35672L1.93422 2.51672C1.89344 2.35312 1.94125 2.18016 2.06031 2.06086C2.17961 1.94156 2.35258 1.89352 2.51617 1.9343L6.35617 2.8943C6.52797 2.93719 6.6625 3.07148 6.70563 3.24328L7.66563 7.08328C7.70149 7.22672 7.66938 7.37883 7.57844 7.49531C7.48727 7.6118 7.34781 7.68 7.19992 7.68ZM3.75555 5.84391L6.53945 6.54L5.84336 3.75609L3.05945 3.06L3.75555 5.84391Z" fill="#A3D4F7"/>
<path d="M10.0799 10.56C9.95266 10.56 9.83056 10.5094 9.74056 10.4194L6.86056 7.53937C6.67868 7.35094 6.68126 7.05164 6.86641 6.86648C7.05157 6.68133 7.35087 6.67875 7.53931 6.86062L10.4193 9.74062C10.5564 9.87797 10.5977 10.0845 10.5234 10.2637C10.4491 10.443 10.274 10.56 10.0799 10.56Z" fill="#A3D4F7"/>
<path d="M5.28009 9.6C5.02814 9.6 4.81908 9.40523 4.80127 9.15398C4.78345 8.90273 4.96299 8.68031 5.21236 8.64469L8.21635 8.21578L8.64549 5.2118C8.68299 4.9493 8.92627 4.76719 9.18877 4.80469C9.45127 4.84242 9.63338 5.0857 9.59588 5.3482L9.11588 8.7082C9.08564 8.91914 8.9197 9.08484 8.70877 9.11531L5.34877 9.59531C5.32603 9.59836 5.30306 9.6 5.28009 9.6Z" fill="#A3D4F7"/>
<path d="M14.8801 12C14.8801 13.5905 13.5906 14.88 12.0001 14.88C10.4096 14.88 9.12012 13.5905 9.12012 12C9.12012 10.4095 10.4096 9.12 12.0001 9.12C13.5906 9.12 14.8801 10.4095 14.8801 12Z" fill="#B7F9FE"/>
<path d="M11.9999 15.36C10.1441 15.36 8.63989 13.8558 8.63989 12C8.63989 10.1442 10.1441 8.64 11.9999 8.64C13.8557 8.64 15.3599 10.1442 15.3599 12C15.3578 13.8548 13.8547 15.3579 11.9999 15.36ZM11.9999 9.6C10.6745 9.6 9.59989 10.6746 9.59989 12C9.59989 13.3254 10.6745 14.4 11.9999 14.4C13.3253 14.4 14.3999 13.3254 14.3999 12C14.3983 10.6751 13.3248 9.60164 11.9999 9.6Z" fill="#A3D4F7"/>
</g>
<defs>
<clipPath id="clip0_1075_26699">
<rect width="24" height="24" fill="white"/>
</clipPath>
</defs>
</svg>
